<svg id="svg" version="1.1" xmlns="http://www.w3.org/2000/svg" xmlns:xlink="http://www.w3.org/1999/xlink" width="400" height="400" viewBox="0, 0, 400,400"><g id="svgg"><path id="path0" d="M55.957 56.854 C 51.721 57.994,48.574 60.128,46.352 63.368 C 44.904 65.479,37.212 82.746,35.890 86.851 C 34.752 90.388,34.756 315.697,35.895 318.164 C 36.729 319.972,38.012 321.256,39.576 321.849 C 40.349 322.142,88.259 322.266,200.550 322.266 L 360.424 322.266 362.125 321.366 C 363.290 320.750,364.111 319.928,364.729 318.759 L 365.632 317.052 365.531 204.132 L 365.430 91.211 364.199 88.613 C 362.637 85.316,360.388 83.067,357.090 81.504 L 354.492 80.273 286.522 80.170 L 218.551 80.067 214.451 72.192 C 208.828 61.390,206.079 58.588,199.398 56.848 C 196.072 55.982,59.176 55.987,55.957 56.854 M198.645 61.152 C 203.768 62.487,205.134 63.959,210.135 73.535 L 213.348 79.688 211.069 79.747 C 209.815 79.779,207.758 79.823,206.498 79.844 L 204.208 79.883 201.616 74.277 C 198.788 68.163,197.296 66.076,194.797 64.740 L 193.164 63.867 126.758 63.867 L 60.352 63.867 58.303 64.947 C 55.791 66.271,50.000 76.278,50.000 79.294 C 50.000 79.511,49.586 79.688,49.081 79.688 C 48.575 79.688,47.082 79.800,45.764 79.938 L 43.366 80.189 46.153 73.786 C 50.164 64.573,51.479 62.963,56.373 61.272 C 59.283 60.267,194.805 60.152,198.645 61.152 M191.819 68.359 C 193.880 68.932,195.034 70.399,197.424 75.488 L 199.580 80.078 127.134 80.078 C 77.220 80.078,54.688 79.952,54.688 79.672 C 54.688 78.980,58.203 70.950,58.921 70.002 C 60.498 67.920,57.674 68.004,126.563 67.988 C 167.477 67.978,190.929 68.112,191.819 68.359 M182.833 70.483 C 182.261 71.172,182.761 72.252,184.162 73.354 L 185.125 74.112 184.128 75.044 C 182.667 76.411,182.278 77.286,182.833 77.955 C 183.491 78.747,183.779 78.672,185.338 77.303 L 186.719 76.091 188.123 77.324 C 189.604 78.624,190.116 78.682,190.783 77.625 C 191.108 77.110,190.919 76.695,189.855 75.598 L 188.519 74.219 189.855 72.840 C 190.919 71.743,191.108 71.328,190.783 70.812 C 190.115 69.753,189.603 69.814,188.103 71.131 L 186.680 72.381 185.411 71.151 C 184.000 69.784,183.517 69.658,182.833 70.483 M355.083 85.386 C 360.831 88.047,361.110 89.091,361.247 108.494 L 361.361 124.604 200.505 124.509 L 39.648 124.414 39.648 106.376 C 39.648 85.893,39.466 87.048,42.981 85.252 L 44.705 84.371 199.012 84.471 L 353.320 84.570 355.083 85.386 M143.750 92.159 C 137.581 93.406,135.403 97.053,135.617 105.777 C 135.777 112.315,136.189 113.568,139.018 116.124 C 142.174 118.975,133.622 118.769,243.961 118.656 L 343.164 118.555 345.147 117.508 C 349.220 115.359,350.391 112.627,350.391 105.273 C 350.391 97.728,349.181 94.997,344.964 93.019 L 342.773 91.992 243.945 91.937 C 189.590 91.907,144.502 92.007,143.750 92.159 M343.582 97.282 C 347.220 99.531,346.981 111.531,343.258 113.566 C 342.056 114.223,336.980 114.258,242.900 114.258 L 143.807 114.258 142.729 113.452 C 140.252 111.604,140.039 110.959,140.039 105.325 C 140.039 98.534,141.023 96.938,145.485 96.488 C 152.568 95.774,342.373 96.535,343.582 97.282 M53.223 96.887 C 52.739 97.081,52.344 97.408,52.344 97.612 C 52.344 97.816,52.237 98.261,52.107 98.600 C 51.947 99.018,52.763 100.137,54.637 102.070 L 57.403 104.922 54.678 107.627 C 51.874 110.409,51.507 111.217,52.567 112.277 C 53.704 113.414,54.776 112.977,57.510 110.264 L 60.156 107.638 62.803 110.264 C 65.537 112.977,66.609 113.414,67.746 112.277 C 68.883 111.139,68.446 110.068,65.724 107.325 L 63.089 104.669 65.724 102.085 C 68.489 99.374,68.821 98.586,67.645 97.521 C 66.421 96.413,65.463 96.782,62.860 99.363 L 60.352 101.851 57.518 99.168 C 54.505 96.314,54.567 96.347,53.223 96.887 M105.840 97.693 C 105.150 98.982,105.655 100.024,108.179 102.518 L 110.530 104.841 107.801 107.655 C 105.745 109.776,105.136 110.647,105.331 111.192 C 106.218 113.669,107.457 113.460,110.676 110.287 L 113.319 107.683 115.310 109.603 C 116.405 110.659,117.627 111.831,118.025 112.207 C 119.029 113.154,120.534 113.068,121.267 112.022 C 122.150 110.762,122.136 110.732,119.064 107.565 L 116.253 104.666 118.869 102.030 C 121.449 99.431,121.968 98.296,121.016 97.344 C 119.990 96.318,118.692 96.857,116.054 99.404 L 113.434 101.933 110.928 99.404 C 108.184 96.636,106.677 96.129,105.840 97.693 M78.533 99.982 C 77.542 100.973,77.505 102.406,78.449 103.260 C 80.736 105.329,96.094 103.905,96.094 101.623 C 96.094 99.361,80.602 97.913,78.533 99.982 M78.356 108.419 C 77.526 109.249,77.569 110.667,78.449 111.463 C 79.064 112.019,80.258 112.109,87.033 112.109 L 94.904 112.109 95.530 111.154 C 96.069 110.331,96.083 110.046,95.632 109.103 L 95.107 108.008 87.042 107.902 C 80.095 107.811,78.892 107.883,78.356 108.419 M44.923 219.629 C 44.925 321.646,44.632 311.860,47.737 313.555 C 49.745 314.652,351.036 314.652,353.045 313.555 C 356.149 311.860,355.856 321.646,355.858 219.629 L 355.859 128.906 358.594 128.906 L 361.328 128.906 361.328 222.656 C 361.328 315.885,361.324 316.411,360.547 317.188 C 359.768 317.966,359.245 317.969,200.451 317.969 L 41.137 317.969 40.393 317.147 C 39.666 316.343,39.646 314.144,39.548 222.615 L 39.448 128.906 42.185 128.906 L 44.922 128.906 44.923 219.629 M351.466 219.238 L 351.367 309.570 200.391 309.570 L 49.414 309.570 49.316 219.238 L 49.217 128.906 200.391 128.906 L 351.564 128.906 351.466 219.238 M193.945 172.063 C 178.051 175.014,170.936 188.607,170.936 216.016 C 170.937 247.494,181.762 261.931,203.711 259.726 C 221.217 257.967,229.102 244.271,229.101 215.625 C 229.100 182.774,217.001 167.782,193.945 172.063 M119.721 199.253 L 102.328 225.474 102.433 233.147 L 102.539 240.820 119.817 240.922 L 137.094 241.024 137.199 249.516 L 137.305 258.008 146.184 258.113 L 155.063 258.218 155.168 249.714 L 155.273 241.211 159.766 241.016 L 164.258 240.820 164.364 233.449 C 164.494 224.434,164.831 225.000,159.330 225.000 L 155.084 225.000 154.983 199.121 L 154.883 173.242 145.999 173.137 L 137.115 173.032 119.721 199.253 M207.589 174.070 C 221.167 177.568,227.526 190.956,227.511 216.016 C 227.496 243.799,219.385 257.215,202.063 258.108 C 187.750 258.847,178.705 251.856,174.829 237.059 C 171.596 224.716,171.987 202.830,175.639 191.797 C 180.532 177.013,192.733 170.243,207.589 174.070 M269.829 173.730 C 269.496 174.106,266.690 178.281,263.592 183.008 C 260.494 187.734,252.916 199.188,246.753 208.460 L 235.547 225.318 235.547 232.984 C 235.547 239.071,235.656 240.691,236.076 240.853 C 236.367 240.964,244.233 241.091,253.556 241.133 L 270.508 241.211 270.613 249.714 L 270.718 258.218 279.597 258.113 L 288.477 258.008 288.510 249.609 L 288.544 241.211 293.108 241.101 L 297.672 240.991 297.567 233.093 L 297.461 225.195 292.871 225.085 L 288.281 224.975 288.281 199.011 L 288.281 173.047 279.357 173.047 C 271.349 173.047,270.372 173.117,269.829 173.730 M153.611 200.684 L 153.711 226.758 158.105 226.868 L 162.500 226.979 162.500 233.216 L 162.500 239.453 158.008 239.453 L 153.516 239.453 153.516 248.047 L 153.516 256.641 146.297 256.641 L 139.078 256.641 138.972 248.145 L 138.867 239.648 121.636 239.547 L 104.405 239.445 104.159 237.398 C 104.024 236.273,103.912 233.304,103.910 230.801 L 103.906 226.251 120.996 200.444 L 138.086 174.637 145.798 174.623 L 153.510 174.609 153.611 200.684 M286.814 200.684 L 286.914 226.758 291.406 226.867 L 295.898 226.976 295.898 233.214 L 295.898 239.451 291.309 239.452 L 286.719 239.453 286.719 248.047 L 286.719 256.641 279.492 256.641 L 272.266 256.641 272.266 248.047 L 272.266 239.453 254.734 239.453 L 237.201 239.453 237.139 232.878 L 237.077 226.302 250.614 205.827 C 258.060 194.566,265.744 182.935,267.690 179.980 L 271.227 174.609 278.970 174.609 L 286.713 174.609 286.814 200.684 M197.008 186.107 C 190.254 188.220,187.821 195.805,187.793 214.844 C 187.760 236.693,190.558 244.408,198.932 245.556 C 208.353 246.847,212.472 237.561,212.494 214.983 C 212.516 192.310,207.440 182.845,197.008 186.107 M204.952 188.904 C 208.971 192.123,210.156 197.201,210.437 212.401 C 210.866 235.591,208.184 243.777,200.170 243.741 C 192.125 243.706,189.663 237.073,189.659 215.430 C 189.655 197.038,191.127 191.147,196.445 188.257 C 198.733 187.014,202.997 187.338,204.952 188.904 M128.704 207.871 C 116.706 226.674,117.029 226.144,117.366 226.481 C 117.518 226.633,122.418 226.758,128.255 226.758 L 138.867 226.758 138.969 209.668 C 139.025 200.269,138.934 192.578,138.767 192.578 C 138.599 192.578,134.071 199.460,128.704 207.871 M267.860 198.535 C 265.827 201.812,261.073 209.326,257.295 215.234 C 251.330 224.563,250.507 226.038,251.039 226.443 C 251.490 226.786,254.347 226.869,261.861 226.756 L 272.070 226.603 272.172 209.590 C 272.233 199.447,272.129 192.578,271.915 192.578 C 271.718 192.578,269.893 195.259,267.860 198.535 M137.359 211.426 L 137.116 224.805 128.669 224.910 C 121.005 225.006,120.246 224.957,120.467 224.380 C 120.601 224.031,123.643 219.149,127.227 213.533 C 136.557 198.909,137.122 198.047,137.375 198.047 C 137.500 198.047,137.493 204.067,137.359 211.426 M270.525 224.509 C 270.322 225.039,253.516 225.262,253.516 224.734 C 253.516 224.588,254.199 223.402,255.035 222.098 C 255.871 220.794,259.181 215.596,262.391 210.547 C 265.602 205.498,268.741 200.576,269.368 199.609 L 270.508 197.852 270.611 210.935 C 270.668 218.130,270.629 224.239,270.525 224.509 " stroke="none" fill="#3f4043" fill-rule="evenodd"></path><path id="path1" d="M192.700 174.217 C 178.981 177.812,172.656 190.906,172.656 215.710 C 172.656 247.960,185.459 262.977,208.008 257.178 C 222.670 253.406,230.480 231.408,226.990 203.711 C 224.047 180.355,211.256 169.353,192.700 174.217 M137.866 175.415 C 137.423 175.859,136.075 177.748,134.871 179.615 C 133.667 181.481,126.291 192.633,118.480 204.398 L 104.278 225.788 104.385 232.523 L 104.492 239.258 121.680 239.453 L 138.867 239.648 139.063 248.047 L 139.258 256.445 145.847 256.553 C 154.283 256.690,153.516 257.583,153.516 247.621 L 153.516 239.479 157.910 239.368 L 162.305 239.258 162.305 233.203 L 162.305 227.148 158.208 227.036 C 155.955 226.974,153.935 226.747,153.719 226.531 C 153.462 226.274,153.368 217.623,153.446 201.442 C 153.525 185.016,153.430 176.387,153.160 175.677 L 152.754 174.609 145.713 174.609 C 139.121 174.609,138.620 174.661,137.866 175.415 M270.575 175.871 C 270.045 176.573,267.544 180.313,265.016 184.180 C 262.488 188.047,255.258 198.998,248.951 208.514 L 237.482 225.818 237.589 232.538 L 237.695 239.258 254.973 239.360 L 272.250 239.461 272.356 247.953 L 272.461 256.445 279.492 256.445 L 286.523 256.445 286.629 247.962 L 286.734 239.479 291.121 239.368 L 295.508 239.258 295.615 233.118 L 295.723 226.979 291.318 226.868 L 286.914 226.758 286.719 200.781 L 286.523 174.805 279.030 174.699 L 271.537 174.593 270.575 175.871 M205.232 186.869 C 210.157 189.755,212.068 196.567,212.399 212.416 C 212.902 236.546,209.558 245.469,200.000 245.499 C 191.110 245.526,187.500 236.786,187.500 215.234 C 187.500 193.829,191.422 185.147,200.850 185.681 C 202.782 185.791,203.917 186.098,205.232 186.869 M138.969 209.668 L 138.867 226.758 128.906 226.868 C 118.953 226.977,117.188 226.873,117.188 226.177 C 117.188 225.974,121.425 219.166,126.603 211.048 C 131.782 202.931,136.546 195.454,137.191 194.434 C 137.835 193.413,138.522 192.578,138.717 192.578 C 138.924 192.578,139.029 199.639,138.969 209.668 M272.172 209.668 L 272.070 226.758 261.674 226.862 C 253.347 226.945,251.191 226.861,250.842 226.441 C 250.504 226.033,251.766 223.787,256.500 216.376 C 259.852 211.129,264.607 203.628,267.068 199.707 C 269.528 195.786,271.706 192.578,271.908 192.578 C 272.131 192.578,272.234 199.226,272.172 209.668 " stroke="none" fill="#ee6d62" fill-rule="evenodd"></path><path id="path2" d="M60.742 68.901 C 58.702 69.790,53.898 79.380,55.391 79.581 C 56.780 79.768,199.218 79.873,199.204 79.688 C 199.082 78.081,194.127 69.622,192.969 69.044 C 191.150 68.135,62.817 67.996,60.742 68.901 M185.913 71.259 L 186.865 72.277 188.118 71.063 C 190.398 68.852,191.965 70.361,190.028 72.901 L 188.976 74.281 189.996 75.345 C 192.199 77.645,190.434 79.613,188.144 77.408 L 186.914 76.222 185.613 77.392 C 183.092 79.658,181.283 77.970,183.634 75.545 L 184.919 74.219 183.670 72.931 C 182.276 71.492,182.090 70.537,183.095 69.974 C 183.886 69.532,184.604 69.859,185.913 71.259 M142.841 97.308 C 138.950 99.360,139.046 111.416,142.969 113.380 C 144.262 114.027,149.697 114.058,243.645 113.965 L 342.954 113.867 344.231 112.591 L 345.508 111.315 345.620 105.755 C 345.747 99.419,345.320 98.109,342.777 97.047 C 340.280 96.003,144.830 96.258,142.841 97.308 M49.706 219.238 L 49.805 309.570 200.175 309.668 C 304.904 309.737,350.671 309.642,350.957 309.356 C 351.365 308.948,351.679 137.447,351.282 131.543 L 351.105 128.906 200.356 128.906 L 49.608 128.906 49.706 219.238 M207.483 172.081 C 223.189 175.210,231.674 195.314,229.321 223.828 C 227.271 248.665,218.205 259.906,200.195 259.944 C 179.311 259.987,170.144 245.340,170.806 212.984 C 171.452 181.380,183.988 167.401,207.483 172.081 M154.855 173.270 C 155.400 173.816,155.469 176.727,155.469 199.429 L 155.469 224.974 159.863 225.085 L 164.258 225.195 164.258 233.203 L 164.258 241.211 159.863 241.321 L 155.469 241.432 155.469 249.574 C 155.469 256.011,155.356 257.810,154.931 258.163 C 154.555 258.475,151.823 258.578,145.849 258.504 L 137.305 258.398 137.199 249.906 L 137.094 241.414 119.817 241.313 L 102.539 241.211 102.289 233.594 C 102.041 226.026,102.045 225.966,102.988 224.318 C 103.511 223.405,111.408 211.408,120.537 197.658 L 137.137 172.656 145.689 172.656 C 152.943 172.656,154.334 172.749,154.855 173.270 M288.203 173.125 C 288.558 173.480,288.672 179.826,288.672 199.297 L 288.672 225.000 292.891 225.000 C 298.379 225.000,298.047 224.490,298.047 232.916 C 298.047 241.887,298.335 241.406,292.955 241.406 L 288.672 241.406 288.672 249.763 C 288.672 257.023,288.591 258.151,288.054 258.357 C 286.824 258.829,271.276 258.620,270.781 258.125 C 270.447 257.790,270.313 255.331,270.313 249.535 L 270.313 241.414 253.027 241.313 L 235.742 241.211 235.396 233.513 L 235.049 225.815 250.888 201.872 C 259.599 188.704,267.537 176.743,268.526 175.293 L 270.326 172.656 279.030 172.656 C 285.279 172.656,287.867 172.788,288.203 173.125 M196.602 188.472 C 191.445 191.090,189.740 197.668,189.717 215.039 C 189.688 236.429,192.299 243.532,200.195 243.546 C 207.781 243.560,210.283 236.663,210.324 215.625 C 210.352 201.093,209.519 195.419,206.707 190.987 C 204.634 187.720,200.239 186.626,196.602 188.472 M136.581 199.015 C 136.459 199.333,132.749 205.235,128.336 212.132 C 123.923 219.029,120.313 224.746,120.313 224.836 C 120.313 224.926,124.092 225.000,128.711 225.000 L 137.109 225.000 137.109 211.719 C 137.109 198.898,137.062 197.761,136.581 199.015 M269.093 200.293 C 268.602 201.099,265.283 206.328,261.719 211.914 C 258.154 217.500,254.863 222.686,254.406 223.438 L 253.575 224.805 261.944 224.949 L 270.313 225.092 270.313 211.960 C 270.313 204.738,270.239 198.828,270.149 198.828 C 270.059 198.828,269.584 199.487,269.093 200.293 " stroke="none" fill="#fbfbfb" fill-rule="evenodd"></path><path id="path3" d="M182.324 56.149 C 183.667 56.225,185.864 56.225,187.207 56.149 C 188.550 56.072,187.451 56.010,184.766 56.010 C 182.080 56.010,180.981 56.072,182.324 56.149 M56.373 61.272 C 51.479 62.963,50.164 64.573,46.153 73.786 L 43.366 80.189 45.764 79.938 C 47.082 79.800,48.575 79.688,49.081 79.688 C 49.586 79.688,50.000 79.511,50.000 79.294 C 50.000 76.278,55.791 66.271,58.303 64.947 L 60.352 63.867 126.758 63.867 L 193.164 63.867 194.797 64.740 C 197.296 66.076,198.788 68.163,201.616 74.277 L 204.208 79.883 206.498 79.844 C 207.758 79.823,209.815 79.779,211.069 79.747 L 213.348 79.688 210.135 73.535 C 205.134 63.959,203.768 62.487,198.645 61.152 C 194.805 60.152,59.283 60.267,56.373 61.272 M65.723 68.260 C 67.603 68.331,70.679 68.331,72.559 68.260 C 74.438 68.188,72.900 68.129,69.141 68.129 C 65.381 68.129,63.843 68.188,65.723 68.260 M76.855 68.244 C 77.339 68.338,78.130 68.338,78.613 68.244 C 79.097 68.151,78.701 68.075,77.734 68.075 C 76.768 68.075,76.372 68.151,76.855 68.244 M101.847 68.251 C 102.540 68.337,103.771 68.338,104.581 68.254 C 105.392 68.169,104.824 68.099,103.320 68.097 C 101.816 68.095,101.153 68.164,101.847 68.251 M107.129 68.249 C 107.720 68.338,108.687 68.338,109.277 68.249 C 109.868 68.159,109.385 68.086,108.203 68.086 C 107.021 68.086,106.538 68.159,107.129 68.249 M113.574 68.251 C 114.272 68.338,115.415 68.338,116.113 68.251 C 116.812 68.165,116.240 68.094,114.844 68.094 C 113.447 68.094,112.876 68.165,113.574 68.251 M129.377 68.258 C 130.818 68.333,133.279 68.333,134.846 68.259 C 136.413 68.185,135.234 68.123,132.227 68.123 C 129.219 68.122,127.937 68.183,129.377 68.258 M150.308 68.258 C 151.659 68.335,153.769 68.334,154.996 68.257 C 156.223 68.180,155.117 68.117,152.539 68.118 C 149.961 68.119,148.957 68.182,150.308 68.258 M159.290 68.257 C 160.426 68.336,162.183 68.336,163.197 68.255 C 164.210 68.175,163.281 68.110,161.133 68.111 C 158.984 68.112,158.155 68.178,159.290 68.257 M175.293 68.259 C 177.065 68.332,179.966 68.332,181.738 68.259 C 183.511 68.187,182.061 68.128,178.516 68.128 C 174.971 68.128,173.521 68.187,175.293 68.259 M188.574 68.244 C 189.058 68.338,189.849 68.338,190.332 68.244 C 190.815 68.151,190.420 68.075,189.453 68.075 C 188.486 68.075,188.091 68.151,188.574 68.244 M42.981 85.252 C 39.466 87.048,39.648 85.893,39.648 106.376 L 39.648 124.414 200.505 124.509 L 361.361 124.604 361.247 108.494 C 361.110 89.091,360.831 88.047,355.083 85.386 L 353.320 84.570 199.012 84.471 L 44.705 84.371 42.981 85.252 M344.964 93.019 C 349.181 94.997,350.391 97.728,350.391 105.273 C 350.391 112.627,349.220 115.359,345.147 117.508 L 343.164 118.555 243.961 118.656 C 133.622 118.769,142.174 118.975,139.018 116.124 C 136.189 113.568,135.777 112.315,135.617 105.777 C 135.403 97.053,137.581 93.406,143.750 92.159 C 144.502 92.007,189.590 91.907,243.945 91.937 L 342.773 91.992 344.964 93.019 M148.938 96.381 C 149.965 96.462,151.547 96.461,152.453 96.379 C 153.360 96.297,152.520 96.231,150.586 96.232 C 148.652 96.234,147.911 96.301,148.938 96.381 M57.518 99.168 L 60.352 101.851 62.860 99.363 C 65.463 96.782,66.421 96.413,67.645 97.521 C 68.821 98.586,68.489 99.374,65.724 102.085 L 63.089 104.669 65.724 107.325 C 68.446 110.068,68.883 111.139,67.746 112.277 C 66.609 113.414,65.537 112.977,62.803 110.264 L 60.156 107.638 57.510 110.264 C 54.776 112.977,53.704 113.414,52.567 112.277 C 51.507 111.217,51.874 110.409,54.678 107.627 L 57.403 104.922 54.637 102.070 C 52.763 100.137,51.947 99.018,52.107 98.600 C 52.237 98.261,52.344 97.816,52.344 97.612 C 52.344 97.278,53.656 96.572,54.393 96.509 C 54.554 96.496,55.960 97.692,57.518 99.168 M110.928 99.404 L 113.434 101.933 116.054 99.404 C 118.692 96.857,119.990 96.318,121.016 97.344 C 121.968 98.296,121.449 99.431,118.869 102.030 L 116.253 104.666 119.064 107.565 C 122.136 110.732,122.150 110.762,121.267 112.022 C 120.534 113.068,119.029 113.154,118.025 112.207 C 117.627 111.831,116.405 110.659,115.310 109.603 L 113.319 107.683 110.676 110.287 C 107.457 113.460,106.218 113.669,105.331 111.192 C 105.136 110.647,105.745 109.776,107.801 107.655 L 110.530 104.841 108.179 102.518 C 105.655 100.024,105.150 98.982,105.840 97.693 C 106.677 96.129,108.184 96.636,110.928 99.404 M95.319 100.201 C 96.307 101.095,96.304 102.133,95.313 103.125 C 94.219 104.218,79.637 104.335,78.449 103.260 C 77.505 102.406,77.542 100.973,78.533 99.982 C 79.665 98.851,94.034 99.038,95.319 100.201 M95.632 109.103 C 96.083 110.046,96.069 110.331,95.530 111.154 L 94.904 112.109 87.033 112.109 C 78.509 112.109,77.734 111.928,77.734 109.928 C 77.734 107.913,78.309 107.788,87.042 107.902 L 95.107 108.008 95.632 109.103 M194.043 114.355 C 220.952 114.411,264.985 114.411,291.895 114.355 C 318.804 114.300,296.787 114.255,242.969 114.255 C 189.150 114.255,167.134 114.300,194.043 114.355 M39.548 222.615 C 39.646 314.144,39.666 316.343,40.393 317.147 L 41.137 317.969 200.451 317.969 C 359.245 317.969,359.768 317.966,360.547 317.188 C 361.324 316.411,361.328 315.885,361.328 222.656 L 361.328 128.906 358.594 128.906 L 355.859 128.906 355.858 219.629 C 355.856 321.646,356.149 311.860,353.045 313.555 C 351.036 314.652,49.745 314.652,47.737 313.555 C 44.632 311.860,44.925 321.646,44.923 219.629 L 44.922 128.906 42.185 128.906 L 39.448 128.906 39.548 222.615 M280.192 172.946 C 281.651 173.022,283.936 173.021,285.270 172.945 C 286.604 172.869,285.410 172.807,282.617 172.808 C 279.824 172.809,278.733 172.871,280.192 172.946 M199.128 173.330 C 199.830 173.417,200.885 173.415,201.472 173.326 C 202.059 173.237,201.484 173.166,200.195 173.168 C 198.906 173.170,198.426 173.243,199.128 173.330 M288.466 199.414 C 288.466 213.594,288.514 219.338,288.574 212.179 C 288.634 205.019,288.634 193.418,288.574 186.397 C 288.514 179.377,288.466 185.234,288.466 199.414 M137.275 206.250 C 137.275 210.869,137.332 212.759,137.401 210.449 C 137.470 208.140,137.470 204.360,137.401 202.051 C 137.332 199.741,137.275 201.631,137.275 206.250 M187.612 209.961 C 187.615 211.035,187.691 211.428,187.780 210.834 C 187.870 210.241,187.868 209.362,187.775 208.881 C 187.682 208.401,187.609 208.887,187.612 209.961 M153.246 216.602 C 153.248 217.891,153.321 218.371,153.408 217.669 C 153.495 216.967,153.493 215.912,153.404 215.325 C 153.315 214.738,153.244 215.313,153.246 216.602 M270.463 219.922 C 270.463 222.607,270.525 223.706,270.602 222.363 C 270.678 221.021,270.678 218.823,270.602 217.480 C 270.525 216.138,270.463 217.236,270.463 219.922 M187.606 220.703 C 187.606 221.670,187.683 222.065,187.776 221.582 C 187.869 221.099,187.869 220.308,187.776 219.824 C 187.683 219.341,187.606 219.736,187.606 220.703 M153.231 221.094 C 153.231 222.061,153.308 222.456,153.401 221.973 C 153.494 221.489,153.494 220.698,153.401 220.215 C 153.308 219.731,153.231 220.127,153.231 221.094 M227.434 221.094 C 227.434 221.846,227.515 222.153,227.613 221.777 C 227.711 221.401,227.711 220.786,227.613 220.410 C 227.515 220.034,227.434 220.342,227.434 221.094 M104.060 231.445 C 104.061 234.453,104.122 235.632,104.197 234.065 C 104.271 232.498,104.270 230.037,104.196 228.596 C 104.121 227.155,104.060 228.437,104.060 231.445 M237.266 231.836 C 237.266 235.059,237.327 236.325,237.400 234.650 C 237.473 232.975,237.473 230.339,237.399 228.791 C 237.325 227.243,237.265 228.613,237.266 231.836 M262.012 226.852 C 263.354 226.928,265.552 226.928,266.895 226.852 C 268.237 226.775,267.139 226.713,264.453 226.713 C 261.768 226.713,260.669 226.775,262.012 226.852 M111.648 241.308 C 116.443 241.370,124.177 241.370,128.835 241.308 C 133.493 241.246,129.570 241.195,120.117 241.195 C 110.664 241.195,106.853 241.246,111.648 241.308 M157.324 241.304 C 158.452 241.383,160.298 241.383,161.426 241.304 C 162.554 241.225,161.631 241.160,159.375 241.160 C 157.119 241.160,156.196 241.225,157.324 241.304 M245.605 241.308 C 250.171 241.371,257.642 241.371,262.207 241.308 C 266.772 241.246,263.037 241.195,253.906 241.195 C 244.775 241.195,241.040 241.246,245.605 241.308 M288.427 241.589 C 288.307 241.904,288.298 242.387,288.409 242.663 C 288.520 242.939,288.624 242.775,288.641 242.298 C 288.671 241.468,288.844 241.428,292.871 241.307 L 297.070 241.182 292.859 241.099 C 289.463 241.032,288.605 241.127,288.427 241.589 M270.424 243.555 C 270.427 244.629,270.503 245.022,270.593 244.428 C 270.683 243.834,270.680 242.956,270.587 242.475 C 270.495 241.995,270.421 242.480,270.424 243.555 M270.403 256.250 C 270.403 257.002,270.484 257.310,270.582 256.934 C 270.680 256.558,270.680 255.942,270.582 255.566 C 270.484 255.190,270.403 255.498,270.403 256.250 M284.082 258.483 C 284.673 258.572,285.640 258.572,286.230 258.483 C 286.821 258.393,286.338 258.320,285.156 258.320 C 283.975 258.320,283.491 258.393,284.082 258.483 M365.773 301.953 C 365.773 304.424,365.836 305.435,365.914 304.199 C 365.991 302.964,365.991 300.942,365.914 299.707 C 365.836 298.472,365.773 299.482,365.773 301.953 " stroke="none" fill="#737c7e" fill-rule="evenodd"></path><path id="path4" d="M81.934 56.152 C 94.019 56.210,113.794 56.210,125.879 56.152 C 137.964 56.095,128.076 56.048,103.906 56.048 C 79.736 56.048,69.849 56.095,81.934 56.152 M155.371 56.152 C 158.862 56.216,164.575 56.216,168.066 56.152 C 171.558 56.087,168.701 56.034,161.719 56.034 C 154.736 56.034,151.880 56.087,155.371 56.152 M176.066 56.141 C 176.759 56.228,177.989 56.229,178.800 56.144 C 179.610 56.060,179.043 55.989,177.539 55.988 C 176.035 55.986,175.372 56.055,176.066 56.141 M190.928 56.146 C 191.847 56.228,193.253 56.227,194.053 56.143 C 194.853 56.059,194.102 55.992,192.383 55.993 C 190.664 55.995,190.010 56.063,190.928 56.146 M79.980 68.244 C 80.464 68.338,81.255 68.338,81.738 68.244 C 82.222 68.151,81.826 68.075,80.859 68.075 C 79.893 68.075,79.497 68.151,79.980 68.244 M87.207 68.260 C 89.731 68.328,93.862 68.328,96.387 68.260 C 98.911 68.192,96.846 68.137,91.797 68.137 C 86.748 68.137,84.683 68.192,87.207 68.260 M121.400 68.257 C 122.535 68.336,124.293 68.336,125.306 68.255 C 126.319 68.175,125.391 68.110,123.242 68.111 C 121.094 68.112,120.265 68.178,121.400 68.257 M141.322 68.257 C 142.457 68.336,144.215 68.336,145.228 68.255 C 146.241 68.175,145.313 68.110,143.164 68.111 C 141.016 68.112,140.187 68.178,141.322 68.257 M167.480 68.255 C 168.394 68.337,169.888 68.337,170.801 68.255 C 171.714 68.173,170.967 68.105,169.141 68.105 C 167.314 68.105,166.567 68.173,167.480 68.255 M185.449 68.244 C 185.933 68.338,186.724 68.338,187.207 68.244 C 187.690 68.151,187.295 68.075,186.328 68.075 C 185.361 68.075,184.966 68.151,185.449 68.244 M184.375 70.044 C 184.375 70.111,184.946 70.683,185.645 71.314 L 186.914 72.461 185.767 71.191 C 184.697 70.008,184.375 69.742,184.375 70.044 M189.247 73.450 C 188.550 74.220,188.550 74.263,189.263 74.915 C 189.958 75.551,189.969 75.550,189.475 74.895 C 189.033 74.307,189.059 74.088,189.655 73.430 C 190.040 73.005,190.268 72.656,190.160 72.656 C 190.053 72.656,189.642 73.013,189.247 73.450 M86.035 79.980 C 103.384 80.037,131.772 80.037,149.121 79.980 C 166.470 79.924,152.275 79.878,117.578 79.878 C 82.881 79.878,68.687 79.924,86.035 79.980 M195.612 79.971 C 196.315 80.058,197.369 80.056,197.956 79.967 C 198.543 79.877,197.969 79.806,196.680 79.809 C 195.391 79.811,194.910 79.884,195.612 79.971 M365.770 99.609 C 365.770 101.865,365.834 102.788,365.913 101.660 C 365.992 100.532,365.992 98.687,365.913 97.559 C 365.834 96.431,365.770 97.354,365.770 99.609 M139.982 104.883 C 139.981 106.816,140.047 107.657,140.129 106.750 C 140.211 105.843,140.212 104.261,140.131 103.234 C 140.051 102.207,139.984 102.949,139.982 104.883 M345.846 105.273 C 345.847 107.422,345.912 108.251,345.992 107.116 C 346.071 105.981,346.070 104.223,345.990 103.210 C 345.910 102.196,345.845 103.125,345.846 105.273 M365.817 203.320 C 365.817 255.313,365.863 276.640,365.918 250.715 C 365.973 224.790,365.973 182.251,365.918 156.184 C 365.863 130.117,365.817 151.328,365.817 203.320 M49.411 218.945 C 49.411 268.574,49.456 288.935,49.512 264.191 C 49.567 239.448,49.567 198.842,49.512 173.957 C 49.456 149.072,49.411 169.316,49.411 218.945 M351.297 131.250 C 351.297 132.646,351.368 133.218,351.454 132.520 C 351.541 131.821,351.541 130.679,351.454 129.980 C 351.368 129.282,351.297 129.854,351.297 131.250 M199.316 171.363 C 199.692 171.461,200.308 171.461,200.684 171.363 C 201.060 171.265,200.752 171.184,200.000 171.184 C 199.248 171.184,198.940 171.265,199.316 171.363 M141.309 172.948 C 143.726 173.016,147.681 173.016,150.098 172.948 C 152.515 172.879,150.537 172.823,145.703 172.823 C 140.869 172.823,138.892 172.879,141.309 172.948 M273.926 172.936 C 274.517 173.026,275.483 173.026,276.074 172.936 C 276.665 172.847,276.182 172.773,275.000 172.773 C 273.818 172.773,273.335 172.847,273.926 172.936 M155.262 199.414 C 155.263 213.594,155.311 219.338,155.371 212.179 C 155.431 205.019,155.431 193.418,155.371 186.397 C 155.311 179.377,155.262 185.234,155.262 199.414 M270.478 207.227 C 270.478 211.738,270.535 213.530,270.604 211.209 C 270.673 208.888,270.673 205.197,270.604 203.006 C 270.534 200.816,270.478 202.715,270.478 207.227 M210.247 206.641 C 210.247 207.393,210.327 207.700,210.426 207.324 C 210.524 206.948,210.524 206.333,210.426 205.957 C 210.327 205.581,210.247 205.889,210.247 206.641 M189.560 208.594 C 189.560 209.561,189.636 209.956,189.729 209.473 C 189.822 208.989,189.822 208.198,189.729 207.715 C 189.636 207.231,189.560 207.627,189.560 208.594 M229.452 216.016 C 229.452 219.131,229.513 220.405,229.587 218.848 C 229.661 217.290,229.661 214.741,229.587 213.184 C 229.513 211.626,229.452 212.900,229.452 216.016 M189.565 222.070 C 189.568 223.145,189.644 223.538,189.733 222.944 C 189.823 222.350,189.821 221.471,189.728 220.991 C 189.635 220.510,189.562 220.996,189.565 222.070 M210.247 224.219 C 210.247 224.971,210.327 225.278,210.426 224.902 C 210.524 224.526,210.524 223.911,210.426 223.535 C 210.327 223.159,210.247 223.467,210.247 224.219 M253.870 224.731 C 254.045 224.905,255.047 224.990,256.098 224.920 L 258.008 224.792 255.780 224.603 C 254.555 224.499,253.695 224.557,253.870 224.731 M235.302 229.492 C 235.303 231.855,235.368 232.772,235.445 231.529 C 235.523 230.286,235.522 228.352,235.444 227.232 C 235.365 226.112,235.301 227.129,235.302 229.492 M102.060 227.344 C 102.060 228.311,102.136 228.706,102.229 228.223 C 102.322 227.739,102.322 226.948,102.229 226.465 C 102.136 225.981,102.060 226.377,102.060 227.344 M297.819 233.008 C 297.819 237.090,297.877 238.707,297.948 236.601 C 298.018 234.495,298.018 231.155,297.947 229.179 C 297.876 227.203,297.819 228.926,297.819 233.008 M155.244 249.609 C 155.244 254.229,155.301 256.118,155.370 253.809 C 155.439 251.499,155.439 247.720,155.370 245.410 C 155.301 243.101,155.244 244.990,155.244 249.609 M270.464 250.195 C 270.465 252.988,270.527 254.080,270.603 252.620 C 270.678 251.161,270.677 248.876,270.601 247.542 C 270.525 246.209,270.464 247.402,270.464 250.195 M143.282 258.495 C 145.496 258.564,149.012 258.564,151.095 258.494 C 153.178 258.424,151.367 258.367,147.070 258.367 C 142.773 258.368,141.069 258.425,143.282 258.495 M274.140 258.494 C 275.922 258.567,278.735 258.566,280.390 258.493 C 282.044 258.420,280.586 258.361,277.148 258.361 C 273.711 258.362,272.357 258.421,274.140 258.494 M351.168 306.525 C 351.063 308.288,351.117 309.589,351.288 309.417 C 351.459 309.245,351.545 307.803,351.480 306.212 L 351.360 303.320 351.168 306.525 M365.777 311.133 C 365.777 313.926,365.840 315.017,365.915 313.558 C 365.990 312.099,365.990 309.814,365.914 308.480 C 365.838 307.146,365.776 308.340,365.777 311.133 M44.447 322.554 C 45.582 322.633,47.340 322.632,48.353 322.552 C 49.366 322.472,48.438 322.407,46.289 322.408 C 44.141 322.409,43.312 322.475,44.447 322.554 M55.980 322.558 C 58.947 322.624,63.693 322.624,66.527 322.557 C 69.361 322.491,66.934 322.436,61.133 322.437 C 55.332 322.437,53.013 322.491,55.980 322.558 M89.551 322.558 C 93.149 322.622,99.038 322.622,102.637 322.558 C 106.235 322.493,103.291 322.441,96.094 322.441 C 88.896 322.441,85.952 322.493,89.551 322.558 M113.199 322.555 C 114.550 322.632,116.659 322.631,117.886 322.554 C 119.113 322.477,118.008 322.414,115.430 322.415 C 112.852 322.416,111.848 322.479,113.199 322.555 M153.027 322.558 C 156.948 322.622,163.364 322.622,167.285 322.558 C 171.206 322.494,167.998 322.442,160.156 322.442 C 152.314 322.442,149.106 322.494,153.027 322.558 M182.335 322.552 C 183.253 322.635,184.660 322.634,185.460 322.550 C 186.260 322.466,185.508 322.398,183.789 322.400 C 182.070 322.401,181.416 322.470,182.335 322.552 M240.128 322.548 C 240.821 322.634,242.052 322.635,242.862 322.551 C 243.673 322.466,243.105 322.396,241.602 322.394 C 240.098 322.392,239.435 322.461,240.128 322.548 M302.021 322.558 C 312.264 322.616,329.139 322.616,339.521 322.559 C 349.904 322.501,341.523 322.453,320.898 322.453 C 300.273 322.453,291.779 322.501,302.021 322.558 " stroke="none" fill="#969697" fill-rule="evenodd"></path></g></svg>